<svg width="20" height="20" viewBox="0 0 20 20" fill="none" xmlns="http://www.w3.org/2000/svg">
<path d="M5.83292 5.30167C7.09318 4.55246 8.53347 4.16013 9.99959 4.16667C15.2554 4.16667 17.8054 8.9025 18.2579 9.84C18.3079 9.9425 18.3079 10.0575 18.2579 10.1608C17.9646 10.7675 16.7946 12.9625 14.5829 14.4367M11.6663 15.6667C11.1177 15.7781 10.5593 15.8339 9.99959 15.8333C4.74376 15.8333 2.19376 11.0975 1.74126 10.16C1.71681 10.1099 1.7041 10.0549 1.7041 9.99917C1.7041 9.94343 1.71681 9.88842 1.74126 9.83833C1.92376 9.46167 2.44126 8.47833 3.33292 7.43417M8.33292 8.13667C8.80921 7.71091 9.43041 7.48364 10.069 7.50151C10.7076 7.51939 11.3151 7.78104 11.7668 8.23277C12.2185 8.68449 12.4802 9.29201 12.4981 9.9306C12.5159 10.5692 12.2887 11.1904 11.8629 11.6667M2.49959 2.5L17.4996 17.5" stroke="#DBDADC" stroke-width="2" stroke-linecap="round" stroke-linejoin="round"/>
</svg>
