<svg width="82" height="19" viewBox="0 0 82 19" fill="none" xmlns="http://www.w3.org/2000/svg">
<path d="M11.7031 6.49219C11.2344 4.89844 9.94531 3.91406 8.09375 3.91406C5.46875 3.91406 3.6875 5.92969 3.6875 9.49219C3.6875 13.0781 5.42188 15.1172 8.11719 15.1172C10.543 15.1172 11.9844 13.7461 12.0312 11.6016H8.35156V8.95312H15.4297V11.0625C15.4297 15.5156 12.3828 18.2344 8.09375 18.2344C3.33594 18.2344 0.101562 14.9062 0.101562 9.53906C0.101562 4.03125 3.54688 0.796875 8.02344 0.796875C11.8438 0.796875 14.7969 3.14062 15.2656 6.49219H11.7031ZM17.9375 18V5.27344H21.2891V7.47656H21.4297C21.8984 5.90625 23.0703 5.08594 24.5 5.08594C24.8516 5.08594 25.2969 5.13281 25.6016 5.20312V8.29688C25.2734 8.20312 24.6172 8.10938 24.125 8.10938C22.5547 8.10938 21.4062 9.21094 21.4062 10.7578V18H17.9375ZM32.6562 18.2578C28.7656 18.2578 26.375 15.7266 26.375 11.6953C26.375 7.75781 28.7891 5.10938 32.5156 5.10938C35.8672 5.10938 38.4922 7.21875 38.4922 11.5547V12.5391H29.7969C29.7969 14.4609 30.9453 15.6562 32.7266 15.6562C33.8984 15.6562 34.7422 15.1406 35.0938 14.3672H38.3984C37.9062 16.7109 35.7969 18.2578 32.6562 18.2578ZM29.7969 10.3594H35.2109C35.2109 8.8125 34.1328 7.71094 32.5859 7.71094C30.9922 7.71094 29.8555 8.89453 29.7969 10.3594ZM46.4375 18.2578C42.5469 18.2578 40.1562 15.7266 40.1562 11.6953C40.1562 7.75781 42.5703 5.10938 46.2969 5.10938C49.6484 5.10938 52.2734 7.21875 52.2734 11.5547V12.5391H43.5781C43.5781 14.4609 44.7266 15.6562 46.5078 15.6562C47.6797 15.6562 48.5234 15.1406 48.875 14.3672H52.1797C51.6875 16.7109 49.5781 18.2578 46.4375 18.2578ZM43.5781 10.3594H48.9922C48.9922 8.8125 47.9141 7.71094 46.3672 7.71094C44.7734 7.71094 43.6367 8.89453 43.5781 10.3594ZM57.9219 10.6406V18H54.4531V5.27344H57.7578V7.5H57.8984C58.4844 6.02344 59.8438 5.10938 61.7188 5.10938C64.3672 5.10938 66.125 6.91406 66.1016 9.89062V18H62.6562V10.5C62.6562 8.92969 61.7891 7.99219 60.3594 7.99219C58.9062 7.99219 57.9219 8.95312 57.9219 10.6406ZM68.7969 18V5.27344H72.2656V18H68.7969ZM70.5312 3.60938C69.4766 3.60938 68.6328 2.8125 68.6328 1.85156C68.6328 0.867188 69.4766 0.0703125 70.5312 0.0703125C71.5625 0.0703125 72.4062 0.867188 72.4062 1.85156C72.4062 2.8125 71.5625 3.60938 70.5312 3.60938ZM81.6641 5.27344V7.875H79.2734V14.0859C79.2734 15.0938 79.7656 15.3516 80.4688 15.375C80.8203 15.375 81.4297 15.3516 81.8516 15.3047V18.0469C81.4766 18.1172 80.8672 18.1641 80 18.1641C77.4922 18.1641 75.7812 17.0391 75.8047 14.5781V7.875H74.0469V5.27344H75.8047V2.22656H79.2734V5.27344H81.6641Z" fill="#25C56D"/>
</svg>
