<svg width="137" height="137" viewBox="0 0 137 137" fill="none" xmlns="http://www.w3.org/2000/svg">
<path d="M82.8441 94.3669H64.252C63.622 94.3669 63.1113 94.8776 63.1113 95.5076V131.378C63.1113 132.008 63.622 132.519 64.252 132.519H82.8441C83.4741 132.519 83.9848 132.008 83.9848 131.378V95.5076C83.9848 94.8776 83.4741 94.3669 82.8441 94.3669Z" fill="#5B363A"/>
<path d="M82.8441 94.3669H64.252C63.622 94.3669 63.1113 94.8776 63.1113 95.5076V131.378C63.1113 132.008 63.622 132.519 64.252 132.519H82.8441C83.4741 132.519 83.9848 132.008 83.9848 131.378V95.5076C83.9848 94.8776 83.4741 94.3669 82.8441 94.3669Z" fill="url(#paint0_linear_103_1350)"/>
<path d="M82.8441 94.3669H64.252C63.622 94.3669 63.1113 94.8776 63.1113 95.5076V131.378C63.1113 132.008 63.622 132.519 64.252 132.519H82.8441C83.4741 132.519 83.9848 132.008 83.9848 131.378V95.5076C83.9848 94.8776 83.4741 94.3669 82.8441 94.3669Z" fill="url(#paint1_linear_103_1350)"/>
<path d="M82.8441 94.3669H64.252C63.622 94.3669 63.1113 94.8776 63.1113 95.5076V131.378C63.1113 132.008 63.622 132.519 64.252 132.519H82.8441C83.4741 132.519 83.9848 132.008 83.9848 131.378V95.5076C83.9848 94.8776 83.4741 94.3669 82.8441 94.3669Z" fill="url(#paint2_linear_103_1350)"/>
<path d="M82.8441 94.3669H64.252C63.622 94.3669 63.1113 94.8776 63.1113 95.5076V131.378C63.1113 132.008 63.622 132.519 64.252 132.519H82.8441C83.4741 132.519 83.9848 132.008 83.9848 131.378V95.5076C83.9848 94.8776 83.4741 94.3669 82.8441 94.3669Z" fill="url(#paint3_linear_103_1350)"/>
<path d="M82.8441 94.3669H64.252C63.622 94.3669 63.1113 94.8776 63.1113 95.5076V131.378C63.1113 132.008 63.622 132.519 64.252 132.519H82.8441C83.4741 132.519 83.9848 132.008 83.9848 131.378V95.5076C83.9848 94.8776 83.4741 94.3669 82.8441 94.3669Z" fill="url(#paint4_radial_103_1350)"/>
<g filter="url(#filter0_i_103_1350)">
<path d="M97.4306 28.4708C97.2241 28.4536 97.0318 28.3589 96.8921 28.2057C96.7525 28.0525 96.676 27.8523 96.6778 27.645C96.6778 21.5016 94.2374 15.6098 89.8933 11.2657C85.5493 6.92167 79.6574 4.4812 73.514 4.4812C67.3706 4.4812 61.4788 6.92167 57.1347 11.2657C52.7907 15.6098 50.3502 21.5016 50.3502 27.645C50.3502 27.8526 50.2732 28.0529 50.1342 28.2071C49.9952 28.3613 49.8039 28.4585 49.5974 28.48C45.7602 28.8751 42.0742 30.187 38.8502 32.3051C35.6262 34.4231 32.9586 37.2852 31.0724 40.6502C29.1862 44.0151 28.1367 47.7842 28.0122 51.6397C27.8878 55.4952 28.6921 59.3241 30.3573 62.8036C30.5474 63.2066 30.6012 63.6604 30.5106 64.0966C30.4201 64.5328 30.1901 64.9277 29.8555 65.2218C26.129 68.4446 23.4769 72.7297 22.2549 77.5025C21.0329 82.2754 21.2994 87.3078 23.0186 91.9249C24.7379 96.5419 27.8277 100.523 31.8737 103.334C35.9198 106.145 40.7286 107.652 45.6554 107.653H101.446C106.372 107.652 111.181 106.145 115.227 103.334C119.273 100.523 122.363 96.5419 124.082 91.9249C125.802 87.3078 126.068 82.2754 124.846 77.5025C123.624 72.7297 120.972 68.4446 117.246 65.2218C116.911 64.9277 116.681 64.5328 116.59 64.0966C116.5 63.6604 116.554 63.2066 116.744 62.8036C118.412 59.3181 119.216 55.482 119.089 51.6198C118.961 47.7577 117.905 43.9831 116.01 40.6153C114.115 37.2475 111.437 34.3857 108.202 32.2718C104.968 30.1579 101.276 28.8541 97.4306 28.4708Z" fill="url(#paint5_radial_103_1350)"/>
<path d="M97.4306 28.4708C97.2241 28.4536 97.0318 28.3589 96.8921 28.2057C96.7525 28.0525 96.676 27.8523 96.6778 27.645C96.6778 21.5016 94.2374 15.6098 89.8933 11.2657C85.5493 6.92167 79.6574 4.4812 73.514 4.4812C67.3706 4.4812 61.4788 6.92167 57.1347 11.2657C52.7907 15.6098 50.3502 21.5016 50.3502 27.645C50.3502 27.8526 50.2732 28.0529 50.1342 28.2071C49.9952 28.3613 49.8039 28.4585 49.5974 28.48C45.7602 28.8751 42.0742 30.187 38.8502 32.3051C35.6262 34.4231 32.9586 37.2852 31.0724 40.6502C29.1862 44.0151 28.1367 47.7842 28.0122 51.6397C27.8878 55.4952 28.6921 59.3241 30.3573 62.8036C30.5474 63.2066 30.6012 63.6604 30.5106 64.0966C30.4201 64.5328 30.1901 64.9277 29.8555 65.2218C26.129 68.4446 23.4769 72.7297 22.2549 77.5025C21.0329 82.2754 21.2994 87.3078 23.0186 91.9249C24.7379 96.5419 27.8277 100.523 31.8737 103.334C35.9198 106.145 40.7286 107.652 45.6554 107.653H101.446C106.372 107.652 111.181 106.145 115.227 103.334C119.273 100.523 122.363 96.5419 124.082 91.9249C125.802 87.3078 126.068 82.2754 124.846 77.5025C123.624 72.7297 120.972 68.4446 117.246 65.2218C116.911 64.9277 116.681 64.5328 116.59 64.0966C116.5 63.6604 116.554 63.2066 116.744 62.8036C118.412 59.3181 119.216 55.482 119.089 51.6198C118.961 47.7577 117.905 43.9831 116.01 40.6153C114.115 37.2475 111.437 34.3857 108.202 32.2718C104.968 30.1579 101.276 28.8541 97.4306 28.4708Z" fill="url(#paint6_radial_103_1350)"/>
<path d="M97.4306 28.4708C97.2241 28.4536 97.0318 28.3589 96.8921 28.2057C96.7525 28.0525 96.676 27.8523 96.6778 27.645C96.6778 21.5016 94.2374 15.6098 89.8933 11.2657C85.5493 6.92167 79.6574 4.4812 73.514 4.4812C67.3706 4.4812 61.4788 6.92167 57.1347 11.2657C52.7907 15.6098 50.3502 21.5016 50.3502 27.645C50.3502 27.8526 50.2732 28.0529 50.1342 28.2071C49.9952 28.3613 49.8039 28.4585 49.5974 28.48C45.7602 28.8751 42.0742 30.187 38.8502 32.3051C35.6262 34.4231 32.9586 37.2852 31.0724 40.6502C29.1862 44.0151 28.1367 47.7842 28.0122 51.6397C27.8878 55.4952 28.6921 59.3241 30.3573 62.8036C30.5474 63.2066 30.6012 63.6604 30.5106 64.0966C30.4201 64.5328 30.1901 64.9277 29.8555 65.2218C26.129 68.4446 23.4769 72.7297 22.2549 77.5025C21.0329 82.2754 21.2994 87.3078 23.0186 91.9249C24.7379 96.5419 27.8277 100.523 31.8737 103.334C35.9198 106.145 40.7286 107.652 45.6554 107.653H101.446C106.372 107.652 111.181 106.145 115.227 103.334C119.273 100.523 122.363 96.5419 124.082 91.9249C125.802 87.3078 126.068 82.2754 124.846 77.5025C123.624 72.7297 120.972 68.4446 117.246 65.2218C116.911 64.9277 116.681 64.5328 116.59 64.0966C116.5 63.6604 116.554 63.2066 116.744 62.8036C118.412 59.3181 119.216 55.482 119.089 51.6198C118.961 47.7577 117.905 43.9831 116.01 40.6153C114.115 37.2475 111.437 34.3857 108.202 32.2718C104.968 30.1579 101.276 28.8541 97.4306 28.4708Z" fill="url(#paint7_radial_103_1350)"/>
<path d="M97.4306 28.4708C97.2241 28.4536 97.0318 28.3589 96.8921 28.2057C96.7525 28.0525 96.676 27.8523 96.6778 27.645C96.6778 21.5016 94.2374 15.6098 89.8933 11.2657C85.5493 6.92167 79.6574 4.4812 73.514 4.4812C67.3706 4.4812 61.4788 6.92167 57.1347 11.2657C52.7907 15.6098 50.3502 21.5016 50.3502 27.645C50.3502 27.8526 50.2732 28.0529 50.1342 28.2071C49.9952 28.3613 49.8039 28.4585 49.5974 28.48C45.7602 28.8751 42.0742 30.187 38.8502 32.3051C35.6262 34.4231 32.9586 37.2852 31.0724 40.6502C29.1862 44.0151 28.1367 47.7842 28.0122 51.6397C27.8878 55.4952 28.6921 59.3241 30.3573 62.8036C30.5474 63.2066 30.6012 63.6604 30.5106 64.0966C30.4201 64.5328 30.1901 64.9277 29.8555 65.2218C26.129 68.4446 23.4769 72.7297 22.2549 77.5025C21.0329 82.2754 21.2994 87.3078 23.0186 91.9249C24.7379 96.5419 27.8277 100.523 31.8737 103.334C35.9198 106.145 40.7286 107.652 45.6554 107.653H101.446C106.372 107.652 111.181 106.145 115.227 103.334C119.273 100.523 122.363 96.5419 124.082 91.9249C125.802 87.3078 126.068 82.2754 124.846 77.5025C123.624 72.7297 120.972 68.4446 117.246 65.2218C116.911 64.9277 116.681 64.5328 116.59 64.0966C116.5 63.6604 116.554 63.2066 116.744 62.8036C118.412 59.3181 119.216 55.482 119.089 51.6198C118.961 47.7577 117.905 43.9831 116.01 40.6153C114.115 37.2475 111.437 34.3857 108.202 32.2718C104.968 30.1579 101.276 28.8541 97.4306 28.4708Z" fill="url(#paint8_radial_103_1350)"/>
<path d="M97.4306 28.4708C97.2241 28.4536 97.0318 28.3589 96.8921 28.2057C96.7525 28.0525 96.676 27.8523 96.6778 27.645C96.6778 21.5016 94.2374 15.6098 89.8933 11.2657C85.5493 6.92167 79.6574 4.4812 73.514 4.4812C67.3706 4.4812 61.4788 6.92167 57.1347 11.2657C52.7907 15.6098 50.3502 21.5016 50.3502 27.645C50.3502 27.8526 50.2732 28.0529 50.1342 28.2071C49.9952 28.3613 49.8039 28.4585 49.5974 28.48C45.7602 28.8751 42.0742 30.187 38.8502 32.3051C35.6262 34.4231 32.9586 37.2852 31.0724 40.6502C29.1862 44.0151 28.1367 47.7842 28.0122 51.6397C27.8878 55.4952 28.6921 59.3241 30.3573 62.8036C30.5474 63.2066 30.6012 63.6604 30.5106 64.0966C30.4201 64.5328 30.1901 64.9277 29.8555 65.2218C26.129 68.4446 23.4769 72.7297 22.2549 77.5025C21.0329 82.2754 21.2994 87.3078 23.0186 91.9249C24.7379 96.5419 27.8277 100.523 31.8737 103.334C35.9198 106.145 40.7286 107.652 45.6554 107.653H101.446C106.372 107.652 111.181 106.145 115.227 103.334C119.273 100.523 122.363 96.5419 124.082 91.9249C125.802 87.3078 126.068 82.2754 124.846 77.5025C123.624 72.7297 120.972 68.4446 117.246 65.2218C116.911 64.9277 116.681 64.5328 116.59 64.0966C116.5 63.6604 116.554 63.2066 116.744 62.8036C118.412 59.3181 119.216 55.482 119.089 51.6198C118.961 47.7577 117.905 43.9831 116.01 40.6153C114.115 37.2475 111.437 34.3857 108.202 32.2718C104.968 30.1579 101.276 28.8541 97.4306 28.4708Z" fill="url(#paint9_radial_103_1350)"/>
<path d="M97.4306 28.4708C97.2241 28.4536 97.0318 28.3589 96.8921 28.2057C96.7525 28.0525 96.676 27.8523 96.6778 27.645C96.6778 21.5016 94.2374 15.6098 89.8933 11.2657C85.5493 6.92167 79.6574 4.4812 73.514 4.4812C67.3706 4.4812 61.4788 6.92167 57.1347 11.2657C52.7907 15.6098 50.3502 21.5016 50.3502 27.645C50.3502 27.8526 50.2732 28.0529 50.1342 28.2071C49.9952 28.3613 49.8039 28.4585 49.5974 28.48C45.7602 28.8751 42.0742 30.187 38.8502 32.3051C35.6262 34.4231 32.9586 37.2852 31.0724 40.6502C29.1862 44.0151 28.1367 47.7842 28.0122 51.6397C27.8878 55.4952 28.6921 59.3241 30.3573 62.8036C30.5474 63.2066 30.6012 63.6604 30.5106 64.0966C30.4201 64.5328 30.1901 64.9277 29.8555 65.2218C26.129 68.4446 23.4769 72.7297 22.2549 77.5025C21.0329 82.2754 21.2994 87.3078 23.0186 91.9249C24.7379 96.5419 27.8277 100.523 31.8737 103.334C35.9198 106.145 40.7286 107.652 45.6554 107.653H101.446C106.372 107.652 111.181 106.145 115.227 103.334C119.273 100.523 122.363 96.5419 124.082 91.9249C125.802 87.3078 126.068 82.2754 124.846 77.5025C123.624 72.7297 120.972 68.4446 117.246 65.2218C116.911 64.9277 116.681 64.5328 116.59 64.0966C116.5 63.6604 116.554 63.2066 116.744 62.8036C118.412 59.3181 119.216 55.482 119.089 51.6198C118.961 47.7577 117.905 43.9831 116.01 40.6153C114.115 37.2475 111.437 34.3857 108.202 32.2718C104.968 30.1579 101.276 28.8541 97.4306 28.4708Z" fill="url(#paint10_radial_103_1350)"/>
<path d="M97.4306 28.4708C97.2241 28.4536 97.0318 28.3589 96.8921 28.2057C96.7525 28.0525 96.676 27.8523 96.6778 27.645C96.6778 21.5016 94.2374 15.6098 89.8933 11.2657C85.5493 6.92167 79.6574 4.4812 73.514 4.4812C67.3706 4.4812 61.4788 6.92167 57.1347 11.2657C52.7907 15.6098 50.3502 21.5016 50.3502 27.645C50.3502 27.8526 50.2732 28.0529 50.1342 28.2071C49.9952 28.3613 49.8039 28.4585 49.5974 28.48C45.7602 28.8751 42.0742 30.187 38.8502 32.3051C35.6262 34.4231 32.9586 37.2852 31.0724 40.6502C29.1862 44.0151 28.1367 47.7842 28.0122 51.6397C27.8878 55.4952 28.6921 59.3241 30.3573 62.8036C30.5474 63.2066 30.6012 63.6604 30.5106 64.0966C30.4201 64.5328 30.1901 64.9277 29.8555 65.2218C26.129 68.4446 23.4769 72.7297 22.2549 77.5025C21.0329 82.2754 21.2994 87.3078 23.0186 91.9249C24.7379 96.5419 27.8277 100.523 31.8737 103.334C35.9198 106.145 40.7286 107.652 45.6554 107.653H101.446C106.372 107.652 111.181 106.145 115.227 103.334C119.273 100.523 122.363 96.5419 124.082 91.9249C125.802 87.3078 126.068 82.2754 124.846 77.5025C123.624 72.7297 120.972 68.4446 117.246 65.2218C116.911 64.9277 116.681 64.5328 116.59 64.0966C116.5 63.6604 116.554 63.2066 116.744 62.8036C118.412 59.3181 119.216 55.482 119.089 51.6198C118.961 47.7577 117.905 43.9831 116.01 40.6153C114.115 37.2475 111.437 34.3857 108.202 32.2718C104.968 30.1579 101.276 28.8541 97.4306 28.4708Z" fill="url(#paint11_radial_103_1350)"/>
<path d="M97.4306 28.4708C97.2241 28.4536 97.0318 28.3589 96.8921 28.2057C96.7525 28.0525 96.676 27.8523 96.6778 27.645C96.6778 21.5016 94.2374 15.6098 89.8933 11.2657C85.5493 6.92167 79.6574 4.4812 73.514 4.4812C67.3706 4.4812 61.4788 6.92167 57.1347 11.2657C52.7907 15.6098 50.3502 21.5016 50.3502 27.645C50.3502 27.8526 50.2732 28.0529 50.1342 28.2071C49.9952 28.3613 49.8039 28.4585 49.5974 28.48C45.7602 28.8751 42.0742 30.187 38.8502 32.3051C35.6262 34.4231 32.9586 37.2852 31.0724 40.6502C29.1862 44.0151 28.1367 47.7842 28.0122 51.6397C27.8878 55.4952 28.6921 59.3241 30.3573 62.8036C30.5474 63.2066 30.6012 63.6604 30.5106 64.0966C30.4201 64.5328 30.1901 64.9277 29.8555 65.2218C26.129 68.4446 23.4769 72.7297 22.2549 77.5025C21.0329 82.2754 21.2994 87.3078 23.0186 91.9249C24.7379 96.5419 27.8277 100.523 31.8737 103.334C35.9198 106.145 40.7286 107.652 45.6554 107.653H101.446C106.372 107.652 111.181 106.145 115.227 103.334C119.273 100.523 122.363 96.5419 124.082 91.9249C125.802 87.3078 126.068 82.2754 124.846 77.5025C123.624 72.7297 120.972 68.4446 117.246 65.2218C116.911 64.9277 116.681 64.5328 116.59 64.0966C116.5 63.6604 116.554 63.2066 116.744 62.8036C118.412 59.3181 119.216 55.482 119.089 51.6198C118.961 47.7577 117.905 43.9831 116.01 40.6153C114.115 37.2475 111.437 34.3857 108.202 32.2718C104.968 30.1579 101.276 28.8541 97.4306 28.4708Z" fill="url(#paint12_radial_103_1350)"/>
<path d="M97.4306 28.4708C97.2241 28.4536 97.0318 28.3589 96.8921 28.2057C96.7525 28.0525 96.676 27.8523 96.6778 27.645C96.6778 21.5016 94.2374 15.6098 89.8933 11.2657C85.5493 6.92167 79.6574 4.4812 73.514 4.4812C67.3706 4.4812 61.4788 6.92167 57.1347 11.2657C52.7907 15.6098 50.3502 21.5016 50.3502 27.645C50.3502 27.8526 50.2732 28.0529 50.1342 28.2071C49.9952 28.3613 49.8039 28.4585 49.5974 28.48C45.7602 28.8751 42.0742 30.187 38.8502 32.3051C35.6262 34.4231 32.9586 37.2852 31.0724 40.6502C29.1862 44.0151 28.1367 47.7842 28.0122 51.6397C27.8878 55.4952 28.6921 59.3241 30.3573 62.8036C30.5474 63.2066 30.6012 63.6604 30.5106 64.0966C30.4201 64.5328 30.1901 64.9277 29.8555 65.2218C26.129 68.4446 23.4769 72.7297 22.2549 77.5025C21.0329 82.2754 21.2994 87.3078 23.0186 91.9249C24.7379 96.5419 27.8277 100.523 31.8737 103.334C35.9198 106.145 40.7286 107.652 45.6554 107.653H101.446C106.372 107.652 111.181 106.145 115.227 103.334C119.273 100.523 122.363 96.5419 124.082 91.9249C125.802 87.3078 126.068 82.2754 124.846 77.5025C123.624 72.7297 120.972 68.4446 117.246 65.2218C116.911 64.9277 116.681 64.5328 116.59 64.0966C116.5 63.6604 116.554 63.2066 116.744 62.8036C118.412 59.3181 119.216 55.482 119.089 51.6198C118.961 47.7577 117.905 43.9831 116.01 40.6153C114.115 37.2475 111.437 34.3857 108.202 32.2718C104.968 30.1579 101.276 28.8541 97.4306 28.4708Z" fill="url(#paint13_radial_103_1350)"/>
<path d="M97.4306 28.4708C97.2241 28.4536 97.0318 28.3589 96.8921 28.2057C96.7525 28.0525 96.676 27.8523 96.6778 27.645C96.6778 21.5016 94.2374 15.6098 89.8933 11.2657C85.5493 6.92167 79.6574 4.4812 73.514 4.4812C67.3706 4.4812 61.4788 6.92167 57.1347 11.2657C52.7907 15.6098 50.3502 21.5016 50.3502 27.645C50.3502 27.8526 50.2732 28.0529 50.1342 28.2071C49.9952 28.3613 49.8039 28.4585 49.5974 28.48C45.7602 28.8751 42.0742 30.187 38.8502 32.3051C35.6262 34.4231 32.9586 37.2852 31.0724 40.6502C29.1862 44.0151 28.1367 47.7842 28.0122 51.6397C27.8878 55.4952 28.6921 59.3241 30.3573 62.8036C30.5474 63.2066 30.6012 63.6604 30.5106 64.0966C30.4201 64.5328 30.1901 64.9277 29.8555 65.2218C26.129 68.4446 23.4769 72.7297 22.2549 77.5025C21.0329 82.2754 21.2994 87.3078 23.0186 91.9249C24.7379 96.5419 27.8277 100.523 31.8737 103.334C35.9198 106.145 40.7286 107.652 45.6554 107.653H101.446C106.372 107.652 111.181 106.145 115.227 103.334C119.273 100.523 122.363 96.5419 124.082 91.9249C125.802 87.3078 126.068 82.2754 124.846 77.5025C123.624 72.7297 120.972 68.4446 117.246 65.2218C116.911 64.9277 116.681 64.5328 116.59 64.0966C116.5 63.6604 116.554 63.2066 116.744 62.8036C118.412 59.3181 119.216 55.482 119.089 51.6198C118.961 47.7577 117.905 43.9831 116.01 40.6153C114.115 37.2475 111.437 34.3857 108.202 32.2718C104.968 30.1579 101.276 28.8541 97.4306 28.4708Z" fill="url(#paint14_linear_103_1350)"/>
<path d="M97.4306 28.4708C97.2241 28.4536 97.0318 28.3589 96.8921 28.2057C96.7525 28.0525 96.676 27.8523 96.6778 27.645C96.6778 21.5016 94.2374 15.6098 89.8933 11.2657C85.5493 6.92167 79.6574 4.4812 73.514 4.4812C67.3706 4.4812 61.4788 6.92167 57.1347 11.2657C52.7907 15.6098 50.3502 21.5016 50.3502 27.645C50.3502 27.8526 50.2732 28.0529 50.1342 28.2071C49.9952 28.3613 49.8039 28.4585 49.5974 28.48C45.7602 28.8751 42.0742 30.187 38.8502 32.3051C35.6262 34.4231 32.9586 37.2852 31.0724 40.6502C29.1862 44.0151 28.1367 47.7842 28.0122 51.6397C27.8878 55.4952 28.6921 59.3241 30.3573 62.8036C30.5474 63.2066 30.6012 63.6604 30.5106 64.0966C30.4201 64.5328 30.1901 64.9277 29.8555 65.2218C26.129 68.4446 23.4769 72.7297 22.2549 77.5025C21.0329 82.2754 21.2994 87.3078 23.0186 91.9249C24.7379 96.5419 27.8277 100.523 31.8737 103.334C35.9198 106.145 40.7286 107.652 45.6554 107.653H101.446C106.372 107.652 111.181 106.145 115.227 103.334C119.273 100.523 122.363 96.5419 124.082 91.9249C125.802 87.3078 126.068 82.2754 124.846 77.5025C123.624 72.7297 120.972 68.4446 117.246 65.2218C116.911 64.9277 116.681 64.5328 116.59 64.0966C116.5 63.6604 116.554 63.2066 116.744 62.8036C118.412 59.3181 119.216 55.482 119.089 51.6198C118.961 47.7577 117.905 43.9831 116.01 40.6153C114.115 37.2475 111.437 34.3857 108.202 32.2718C104.968 30.1579 101.276 28.8541 97.4306 28.4708Z" fill="url(#paint15_radial_103_1350)" fill-opacity="0.75"/>
</g>
<g filter="url(#filter1_f_103_1350)">
<path d="M74.8965 108.912H80.9829V131.241H74.8965V108.912Z" fill="url(#paint16_linear_103_1350)"/>
</g>
<g filter="url(#filter2_f_103_1350)">
<path d="M74.8916 108.912H71.4925V131.241H74.8916V108.912Z" fill="url(#paint17_linear_103_1350)"/>
</g>
<g filter="url(#filter3_f_103_1350)">
<path d="M106.551 60.3011C113.135 58.844 117.379 52.7245 116.031 46.6329C114.683 40.5413 108.252 36.7843 101.669 38.2415C95.0852 39.6986 90.841 45.8181 92.1893 51.9097C93.5375 58.0013 99.9676 61.7583 106.551 60.3011Z" fill="url(#paint18_radial_103_1350)"/>
</g>
<g filter="url(#filter4_f_103_1350)">
<path d="M81.9484 31.0803C88.367 30.2395 93.0356 25.4767 92.3761 20.4423C91.7166 15.408 85.9788 12.0084 79.5603 12.8492C73.1417 13.69 68.4731 18.4528 69.1326 23.4871C69.7921 28.5215 75.5299 31.9211 81.9484 31.0803Z" fill="url(#paint19_radial_103_1350)"/>
</g>
<g filter="url(#filter5_f_103_1350)">
<path d="M111.182 91.7333C117.766 90.2761 122.01 84.1566 120.662 78.065C119.313 71.9734 112.883 68.2165 106.3 69.6736C99.716 71.1308 95.4719 77.2502 96.8201 83.3418C98.1684 89.4334 104.598 93.1904 111.182 91.7333Z" fill="url(#paint20_radial_103_1350)"/>
</g>
<g filter="url(#filter6_f_103_1350)">
<path d="M43.4248 66.1389H93.042C97.6045 66.0659 107.957 65.5275 112.861 63.9307" stroke="url(#paint21_linear_103_1350)" stroke-width="0.25" stroke-linecap="round" stroke-linejoin="round"/>
</g>
<g filter="url(#filter7_f_103_1350)">
<path d="M51.6914 29.6389C54.7802 31.5415 63.4398 35.342 73.3633 35.342C83.2867 35.342 92.8269 31.5415 95.537 29.6389" stroke="url(#paint22_linear_103_1350)" stroke-width="0.2" stroke-linecap="round"/>
</g>
<g filter="url(#filter8_f_103_1350)">
<path d="M66.2227 9.32202C62.2807 10.7957 54.2461 15.4951 54.2461 29.6388" stroke="url(#paint23_linear_103_1350)" stroke-width="0.25" stroke-linecap="round"/>
</g>
<g filter="url(#filter9_f_103_1350)">
<path d="M45.6786 32.4448C41.983 33.4988 34.1446 38.0111 32.4154 47.5832C31.0558 55.0931 33.9028 63.2965 35.7323 65.1716" stroke="url(#paint24_linear_103_1350)" stroke-width="0.25" stroke-linecap="round"/>
</g>
<g filter="url(#filter10_f_103_1350)">
<path d="M35.445 64.5967C32.0778 66.3761 25.4075 72.6404 25.6356 83.4854C25.8637 94.3305 34.0032 100.595 38.0365 102.374" stroke="url(#paint25_linear_103_1350)" stroke-width="0.25" stroke-linecap="round"/>
</g>
<defs>
<filter id="filter0_i_103_1350" x="21.5" y="4.4812" width="104.351" height="103.172" filterUnits="userSpaceOnUse" color-interpolation-filters="sRGB">
<feFlood flood-opacity="0" result="BackgroundImageFix"/>
<feBlend mode="normal" in="SourceGraphic" in2="BackgroundImageFix" result="shape"/>
<feColorMatrix in="SourceAlpha" type="matrix" values="0 0 0 0 0 0 0 0 0 0 0 0 0 0 0 0 0 0 127 0" result="hardAlpha"/>
<feOffset dx="0.25"/>
<feGaussianBlur stdDeviation="0.25"/>
<feComposite in2="hardAlpha" operator="arithmetic" k2="-1" k3="1"/>
<feColorMatrix type="matrix" values="0 0 0 0 0.619608 0 0 0 0 0.72549 0 0 0 0 0.639216 0 0 0 1 0"/>
<feBlend mode="normal" in2="shape" result="effect1_innerShadow_103_1350"/>
</filter>
<filter id="filter1_f_103_1350" x="74.3965" y="108.412" width="7.08594" height="23.3289" filterUnits="userSpaceOnUse" color-interpolation-filters="sRGB">
<feFlood flood-opacity="0" result="BackgroundImageFix"/>
<feBlend mode="normal" in="SourceGraphic" in2="BackgroundImageFix" result="shape"/>
<feGaussianBlur stdDeviation="0.25" result="effect1_foregroundBlur_103_1350"/>
</filter>
<filter id="filter2_f_103_1350" x="70.9922" y="108.412" width="4.39941" height="23.3289" filterUnits="userSpaceOnUse" color-interpolation-filters="sRGB">
<feFlood flood-opacity="0" result="BackgroundImageFix"/>
<feBlend mode="normal" in="SourceGraphic" in2="BackgroundImageFix" result="shape"/>
<feGaussianBlur stdDeviation="0.25" result="effect1_foregroundBlur_103_1350"/>
</filter>
<filter id="filter3_f_103_1350" x="90.9395" y="36.9277" width="26.3408" height="24.6873" filterUnits="userSpaceOnUse" color-interpolation-filters="sRGB">
<feFlood flood-opacity="0" result="BackgroundImageFix"/>
<feBlend mode="normal" in="SourceGraphic" in2="BackgroundImageFix" result="shape"/>
<feGaussianBlur stdDeviation="0.5" result="effect1_foregroundBlur_103_1350"/>
</filter>
<filter id="filter4_f_103_1350" x="68.0703" y="11.7214" width="25.3682" height="20.4866" filterUnits="userSpaceOnUse" color-interpolation-filters="sRGB">
<feFlood flood-opacity="0" result="BackgroundImageFix"/>
<feBlend mode="normal" in="SourceGraphic" in2="BackgroundImageFix" result="shape"/>
<feGaussianBlur stdDeviation="0.5" result="effect1_foregroundBlur_103_1350"/>
</filter>
<filter id="filter5_f_103_1350" x="95.5703" y="68.3599" width="26.3408" height="24.6873" filterUnits="userSpaceOnUse" color-interpolation-filters="sRGB">
<feFlood flood-opacity="0" result="BackgroundImageFix"/>
<feBlend mode="normal" in="SourceGraphic" in2="BackgroundImageFix" result="shape"/>
<feGaussianBlur stdDeviation="0.5" result="effect1_foregroundBlur_103_1350"/>
</filter>
<filter id="filter6_f_103_1350" x="42.9748" y="63.4807" width="70.3365" height="3.10825" filterUnits="userSpaceOnUse" color-interpolation-filters="sRGB">
<feFlood flood-opacity="0" result="BackgroundImageFix"/>
<feBlend mode="normal" in="SourceGraphic" in2="BackgroundImageFix" result="shape"/>
<feGaussianBlur stdDeviation="0.1625" result="effect1_foregroundBlur_103_1350"/>
</filter>
<filter id="filter7_f_103_1350" x="51.3668" y="29.3138" width="44.4949" height="6.35332" filterUnits="userSpaceOnUse" color-interpolation-filters="sRGB">
<feFlood flood-opacity="0" result="BackgroundImageFix"/>
<feBlend mode="normal" in="SourceGraphic" in2="BackgroundImageFix" result="shape"/>
<feGaussianBlur stdDeviation="0.1125" result="effect1_foregroundBlur_103_1350"/>
</filter>
<filter id="filter8_f_103_1350" x="53.6211" y="8.69702" width="13.2266" height="21.5669" filterUnits="userSpaceOnUse" color-interpolation-filters="sRGB">
<feFlood flood-opacity="0" result="BackgroundImageFix"/>
<feBlend mode="normal" in="SourceGraphic" in2="BackgroundImageFix" result="shape"/>
<feGaussianBlur stdDeviation="0.25" result="effect1_foregroundBlur_103_1350"/>
</filter>
<filter id="filter9_f_103_1350" x="31.3096" y="31.6948" width="15.1191" height="34.2268" filterUnits="userSpaceOnUse" color-interpolation-filters="sRGB">
<feFlood flood-opacity="0" result="BackgroundImageFix"/>
<feBlend mode="normal" in="SourceGraphic" in2="BackgroundImageFix" result="shape"/>
<feGaussianBlur stdDeviation="0.3125" result="effect1_foregroundBlur_103_1350"/>
</filter>
<filter id="filter10_f_103_1350" x="24.8799" y="63.8467" width="13.9062" height="39.2776" filterUnits="userSpaceOnUse" color-interpolation-filters="sRGB">
<feFlood flood-opacity="0" result="BackgroundImageFix"/>
<feBlend mode="normal" in="SourceGraphic" in2="BackgroundImageFix" result="shape"/>
<feGaussianBlur stdDeviation="0.3125" result="effect1_foregroundBlur_103_1350"/>
</filter>
<linearGradient id="paint0_linear_103_1350" x1="60.3738" y1="124.169" x2="71.4972" y2="124.169" gradientUnits="userSpaceOnUse">
<stop stop-color="#908181"/>
<stop offset="1" stop-color="#908181" stop-opacity="0"/>
</linearGradient>
<linearGradient id="paint1_linear_103_1350" x1="63.1113" y1="121.569" x2="66.2914" y2="121.569" gradientUnits="userSpaceOnUse">
<stop stop-color="#5B363A"/>
<stop offset="1" stop-color="#5B363A" stop-opacity="0"/>
</linearGradient>
<linearGradient id="paint2_linear_103_1350" x1="73.5503" y1="132.523" x2="73.5503" y2="130.703" gradientUnits="userSpaceOnUse">
<stop stop-color="#6A2F5B"/>
<stop offset="1" stop-color="#6A2F5B" stop-opacity="0"/>
</linearGradient>
<linearGradient id="paint3_linear_103_1350" x1="86.339" y1="116.897" x2="82.2738" y2="116.897" gradientUnits="userSpaceOnUse">
<stop stop-color="#6D5C5C"/>
<stop offset="1" stop-color="#6D5C5C" stop-opacity="0"/>
</linearGradient>
<radialGradient id="paint4_radial_103_1350" cx="0" cy="0" r="1" gradientUnits="userSpaceOnUse" gradientTransform="translate(80.7135 107.626) rotate(89.585) scale(9.83815 3.63668)">
<stop offset="0.407" stop-color="#4D2D31"/>
<stop offset="1" stop-color="#4D2D31" stop-opacity="0"/>
</radialGradient>
<radialGradient id="paint5_radial_103_1350" cx="0" cy="0" r="1" gradientUnits="userSpaceOnUse" gradientTransform="translate(109.581 66.1388) rotate(180) scale(75.5664 76.2476)">
<stop stop-color="#7CBE4D"/>
<stop offset="1" stop-color="#549756"/>
</radialGradient>
<radialGradient id="paint6_radial_103_1350" cx="0" cy="0" r="1" gradientUnits="userSpaceOnUse" gradientTransform="translate(32.301 101.211) rotate(-24.0013) scale(42.7639 47.6106)">
<stop stop-color="#438154"/>
<stop offset="1" stop-color="#438154" stop-opacity="0"/>
</radialGradient>
<radialGradient id="paint7_radial_103_1350" cx="0" cy="0" r="1" gradientUnits="userSpaceOnUse" gradientTransform="translate(24.8869 56.0694) scale(41.0625 30.5529)">
<stop stop-color="#438154"/>
<stop offset="1" stop-color="#438154" stop-opacity="0"/>
</radialGradient>
<radialGradient id="paint8_radial_103_1350" cx="0" cy="0" r="1" gradientUnits="userSpaceOnUse" gradientTransform="translate(48.84 15.9513) rotate(25.622) scale(30.993 23.7334)">
<stop stop-color="#438154"/>
<stop offset="1" stop-color="#438154" stop-opacity="0"/>
</radialGradient>
<radialGradient id="paint9_radial_103_1350" cx="0" cy="0" r="1" gradientUnits="userSpaceOnUse" gradientTransform="translate(46.1345 28.0739) rotate(159.814) scale(10.3298 4.27085)">
<stop stop-color="#438154"/>
<stop offset="1" stop-color="#438154" stop-opacity="0"/>
</radialGradient>
<radialGradient id="paint10_radial_103_1350" cx="0" cy="0" r="1" gradientUnits="userSpaceOnUse" gradientTransform="translate(118.706 50.4529) rotate(168.972) scale(29.3426 30.5173)">
<stop stop-color="#81CB44"/>
<stop offset="1" stop-color="#81CB44" stop-opacity="0"/>
</radialGradient>
<radialGradient id="paint11_radial_103_1350" cx="0" cy="0" r="1" gradientUnits="userSpaceOnUse" gradientTransform="translate(130.965 84.3888) rotate(-167.6) scale(41.1673 42.8153)">
<stop stop-color="#81CB44"/>
<stop offset="1" stop-color="#81CB44" stop-opacity="0"/>
</radialGradient>
<radialGradient id="paint12_radial_103_1350" cx="0" cy="0" r="1" gradientUnits="userSpaceOnUse" gradientTransform="translate(105.591 11.673) rotate(156.009) scale(35.067 36.9437)">
<stop stop-color="#81CB44"/>
<stop offset="1" stop-color="#81CB44" stop-opacity="0"/>
</radialGradient>
<radialGradient id="paint13_radial_103_1350" cx="0" cy="0" r="1" gradientUnits="userSpaceOnUse" gradientTransform="translate(38.5744 118.046) rotate(-6.433) scale(58.5405 30.8963)">
<stop stop-color="#5A6F6C"/>
<stop offset="1" stop-color="#5A6F6C" stop-opacity="0"/>
</radialGradient>
<linearGradient id="paint14_linear_103_1350" x1="53.9683" y1="110.5" x2="54.5477" y2="101.617" gradientUnits="userSpaceOnUse">
<stop stop-color="#7A7397"/>
<stop offset="1" stop-color="#7A7397" stop-opacity="0"/>
</linearGradient>
<radialGradient id="paint15_radial_103_1350" cx="0" cy="0" r="1" gradientUnits="userSpaceOnUse" gradientTransform="translate(62.0713 59.5369) scale(35.5196 14.0167)">
<stop stop-color="#5B8F67"/>
<stop offset="0.834" stop-color="#5B8F67" stop-opacity="0"/>
</radialGradient>
<linearGradient id="paint16_linear_103_1350" x1="77.9397" y1="96.2925" x2="77.9397" y2="131.241" gradientUnits="userSpaceOnUse">
<stop stop-color="#7F5B60" stop-opacity="0"/>
<stop offset="1" stop-color="#7F5B60"/>
</linearGradient>
<linearGradient id="paint17_linear_103_1350" x1="73.1944" y1="104.149" x2="73.1944" y2="131.241" gradientUnits="userSpaceOnUse">
<stop stop-color="#683B4B" stop-opacity="0"/>
<stop offset="1" stop-color="#683B4B"/>
</linearGradient>
<radialGradient id="paint18_radial_103_1350" cx="0" cy="0" r="1" gradientUnits="userSpaceOnUse" gradientTransform="translate(110.685 45.8982) rotate(146.713) scale(20.7109 14.3857)">
<stop stop-color="#A0E271"/>
<stop offset="1" stop-color="#A0E271" stop-opacity="0"/>
</radialGradient>
<radialGradient id="paint19_radial_103_1350" cx="0" cy="0" r="1" gradientUnits="userSpaceOnUse" gradientTransform="translate(91.4706 18.5179) rotate(155.917) scale(20.6148 8.85233)">
<stop stop-color="#A0E271"/>
<stop offset="1" stop-color="#A0E271" stop-opacity="0"/>
</radialGradient>
<radialGradient id="paint20_radial_103_1350" cx="0" cy="0" r="1" gradientUnits="userSpaceOnUse" gradientTransform="translate(115.325 77.3299) rotate(146.713) scale(20.7109 14.3857)">
<stop stop-color="#A0E271"/>
<stop offset="1" stop-color="#A0E271" stop-opacity="0"/>
</radialGradient>
<linearGradient id="paint21_linear_103_1350" x1="117.848" y1="66.1389" x2="43.4248" y2="66.1389" gradientUnits="userSpaceOnUse">
<stop offset="0.092" stop-color="#9DDB71"/>
<stop offset="1" stop-color="#6CA663" stop-opacity="0"/>
</linearGradient>
<linearGradient id="paint22_linear_103_1350" x1="96.9286" y1="35.342" x2="40.8555" y2="35.342" gradientUnits="userSpaceOnUse">
<stop stop-color="#9DDB71"/>
<stop offset="0.505" stop-color="#6CA663" stop-opacity="0"/>
<stop offset="1" stop-color="#6CA663"/>
</linearGradient>
<linearGradient id="paint23_linear_103_1350" x1="57.7912" y1="28.9818" x2="77.6882" y2="-7.20792" gradientUnits="userSpaceOnUse">
<stop stop-color="#8FB48E"/>
<stop offset="1" stop-color="#8FB48E" stop-opacity="0"/>
</linearGradient>
<linearGradient id="paint24_linear_103_1350" x1="36.0882" y1="64.1131" x2="72.8893" y2="16.8593" gradientUnits="userSpaceOnUse">
<stop stop-color="#8FB48E"/>
<stop offset="1" stop-color="#8FB48E" stop-opacity="0"/>
</linearGradient>
<linearGradient id="paint25_linear_103_1350" x1="29.7373" y1="70.7013" x2="17.0307" y2="101.557" gradientUnits="userSpaceOnUse">
<stop stop-color="#8FB48E"/>
<stop offset="1" stop-color="#8FB48E" stop-opacity="0"/>
</linearGradient>
</defs>
</svg>
